<svg width="0" height="0" class="hidden">
  <symbol xmlns="http://www.w3.org/2000/svg" viewBox="0 0 28 28" id="arrow-down">
    <path
      d="M14 18.9883C14.3076 18.9795 14.5889 18.8652 14.8174 18.6191L21.4971 11.7812C21.6904 11.5879 21.7959 11.3418 21.7959 11.0518C21.7959 10.4717 21.3389 10.0059 20.7588 10.0059C20.4775 10.0059 20.2051 10.1201 20.0029 10.3223L14.0088 16.4834L7.99707 10.3223C7.79492 10.1289 7.53125 10.0059 7.24121 10.0059C6.66113 10.0059 6.2041 10.4717 6.2041 11.0518C6.2041 11.3418 6.30957 11.5879 6.50293 11.7812L13.1914 18.6191C13.4287 18.8652 13.6924 18.9883 14 18.9883Z">
    </path>
  </symbol>
  <symbol xmlns="http://www.w3.org/2000/svg" viewBox="0 0 24 24" id="trash">
    <path
      d="M23.2177 1.28442C23.0278 1.09524 22.7707 0.989014 22.5027 0.989014C22.2347 0.989014 21.9776 1.09524 21.7877 1.28442L17.0237 6.04841L16.7037 5.73541C15.86 4.91137 14.7526 4.4115 13.5765 4.32388C12.4004 4.23625 11.2312 4.56649 10.2747 5.25641C8.89422 6.29741 7.35976 7.1166 5.72669 7.68441L3.65269 8.29241C2.97873 8.49024 2.35362 8.82687 1.8175 9.28067C1.28138 9.73446 0.846125 10.2954 0.539685 10.9274C0.238292 11.5508 0.0704237 12.2304 0.0468323 12.9224C0.0232409 13.6145 0.144446 14.3039 0.402685 14.9464C1.38146 17.3492 3.0594 19.4025 5.21901 20.8404C7.37862 22.2782 9.92032 23.0342 12.5147 23.0104H13.4387C13.6454 23.0102 13.8472 22.9467 14.0167 22.8284C15.7769 21.6794 17.2812 20.1798 18.4358 18.4233C19.5903 16.6667 20.3702 14.6909 20.7267 12.6194C20.8507 11.8273 20.7835 11.017 20.5308 10.2562C20.278 9.49528 19.847 8.80587 19.2737 8.24541L18.4737 7.46141L23.2207 2.71442C23.4095 2.52415 23.5152 2.26682 23.5146 1.9988C23.514 1.73077 23.4073 1.47389 23.2177 1.28442ZM13.1107 20.9844H12.5107C11.0331 20.9864 9.5695 20.6987 8.20268 20.1374L8.21369 20.1314C9.96258 19.2539 11.4598 17.9463 12.5647 16.3314L13.0827 15.5704C13.2336 15.3489 13.2903 15.0766 13.2405 14.8133C13.1906 14.55 13.0381 14.3173 12.8167 14.1664C12.5952 14.0155 12.3229 13.9587 12.0596 14.0086C11.7963 14.0585 11.5636 14.2109 11.4127 14.4324L10.8947 15.1934C9.98189 16.525 8.74594 17.603 7.30269 18.3264L6.05168 18.9564C5.0508 18.2528 4.17727 17.3837 3.46869 16.3864C5.10766 15.835 6.60298 14.9249 7.84569 13.7224C8.03744 13.5349 8.14685 13.2789 8.14985 13.0107C8.15285 12.7425 8.04919 12.4842 7.86169 12.2924C7.67418 12.1007 7.41818 11.9912 7.15 11.9882C6.88182 11.9852 6.62344 12.0889 6.43168 12.2764C5.31257 13.3608 3.94672 14.1569 2.45168 14.5964C2.39068 14.4614 2.32469 14.3294 2.26969 14.1904C2.11481 13.8101 2.04231 13.4012 2.05696 12.9908C2.07161 12.5804 2.17308 12.1777 2.35469 11.8094C2.53854 11.4312 2.79928 11.0955 3.12024 10.8238C3.4412 10.5521 3.81532 10.3503 4.21869 10.2314L6.29169 9.62341C7.49464 9.23696 8.64533 8.7036 9.71768 8.03541L17.6327 15.7474C16.581 17.8409 15.0275 19.6414 13.1107 20.9884V20.9844ZM18.7307 12.3014C18.6542 12.7693 18.5511 13.2323 18.4217 13.6884L11.4507 6.89941C11.9621 6.53184 12.5759 6.33389 13.2057 6.33341C13.9848 6.33242 14.7331 6.63729 15.2897 7.18241L17.8587 9.69141C18.2017 10.0262 18.4597 10.4381 18.6114 10.8928C18.7631 11.3474 18.804 11.8317 18.7307 12.3054V12.3014Z">
    </path>
  </symbol>
  <symbol xmlns="http://www.w3.org/2000/svg" viewBox="0 0 25 25" id="building">
    <path
      d="M24.1823 23.5361C24.1823 23.8013 24.0769 24.0556 23.8894 24.2432C23.7018 24.4307 23.4475 24.5361 23.1823 24.5361H1.18228C0.917059 24.5361 0.662705 24.4307 0.475169 24.2432C0.287632 24.0556 0.182276 23.8013 0.182276 23.5361C0.182276 23.2709 0.287632 23.0165 0.475169 22.829C0.662705 22.6414 0.917059 22.5361 1.18228 22.5361H23.1823C23.4475 22.5361 23.7018 22.6414 23.8894 22.829C24.0769 23.0165 24.1823 23.2709 24.1823 23.5361ZM0.473276 9.08807C0.257798 8.68839 0.15797 8.23657 0.184996 7.78332C0.212022 7.33006 0.364831 6.89331 0.626276 6.52207C1.05353 5.89518 1.62572 5.38063 2.29428 5.02207L9.79528 1.11807C10.5325 0.734697 11.3513 0.534546 12.1823 0.534546C13.0133 0.534546 13.832 0.734697 14.5693 1.11807L22.0693 5.02507C22.7378 5.38363 23.31 5.89818 23.7373 6.52507C23.9987 6.89631 24.1515 7.33306 24.1786 7.78632C24.2056 8.23957 24.1058 8.69139 23.8903 9.09107C23.6583 9.5299 23.3104 9.89667 22.8844 10.1515C22.4584 10.4062 21.9706 10.5393 21.4743 10.5361H21.1823V18.5361H22.1823C22.4475 18.5361 22.7018 18.6414 22.8894 18.829C23.0769 19.0165 23.1823 19.2709 23.1823 19.5361C23.1823 19.8013 23.0769 20.0556 22.8894 20.2432C22.7018 20.4307 22.4475 20.5361 22.1823 20.5361H2.18228C1.91706 20.5361 1.66271 20.4307 1.47517 20.2432C1.28763 20.0556 1.18228 19.8013 1.18228 19.5361C1.18228 19.2709 1.28763 19.0165 1.47517 18.829C1.66271 18.6414 1.91706 18.5361 2.18228 18.5361H3.18228V10.5361H2.89028C2.39343 10.5392 1.90528 10.4058 1.47906 10.1504C1.05285 9.89509 0.704934 9.52761 0.473276 9.08807ZM5.18228 18.5361H8.18228V10.5361H5.18228V18.5361ZM10.1823 10.5361V18.5361H14.1823V10.5361H10.1823ZM19.1823 10.5361H16.1823V18.5361H19.1823V10.5361ZM2.24528 8.16107C2.30802 8.27675 2.40139 8.37293 2.51516 8.43907C2.62893 8.50521 2.7587 8.53877 2.89028 8.53607H21.4743C21.6058 8.53877 21.7356 8.50521 21.8494 8.43907C21.9632 8.37293 22.0565 8.27675 22.1193 8.16107C22.165 8.08463 22.1871 7.9964 22.1828 7.90744C22.1785 7.81849 22.1481 7.73277 22.0953 7.66107C21.853 7.30098 21.5275 7.00461 21.1463 6.79707L13.6463 2.89007C13.1943 2.65549 12.6925 2.53304 12.1833 2.53304C11.674 2.53304 11.1723 2.65549 10.7203 2.89007L3.22028 6.79707C2.83926 7.00528 2.5138 7.30192 2.27128 7.66207C2.21836 7.73347 2.18768 7.81889 2.18305 7.90765C2.17843 7.9964 2.20007 8.08455 2.24528 8.16107Z">
    </path>
  </symbol>
  <symbol xmlns="http://www.w3.org/2000/svg" viewBox="0 0 25 24" id="transport">
    <path
      d="M20.9654 4.05254C20.6132 3.08875 19.9736 2.25633 19.1331 1.66777C18.2925 1.07921 17.2916 0.76288 16.2654 0.761536H7.86544C6.83931 0.76288 5.83834 1.07921 4.99779 1.66777C4.15724 2.25633 3.51765 3.08875 3.16543 4.05254L0.465435 11.4795C0.199884 12.211 0.064505 12.9833 0.0654344 13.7615V14.7615C0.0672188 15.5343 0.248867 16.2961 0.595999 16.9866C0.943132 17.677 1.44622 18.2772 2.06543 18.7395C2.06543 18.7475 2.06543 18.7535 2.06543 18.7615V20.7615C2.06543 21.5572 2.38151 22.3202 2.94411 22.8829C3.50672 23.4455 4.26979 23.7615 5.06543 23.7615C5.86108 23.7615 6.62415 23.4455 7.18676 22.8829C7.74936 22.3202 8.06544 21.5572 8.06544 20.7615V19.7615H16.0654V20.7615C16.0654 21.5572 16.3815 22.3202 16.9441 22.8829C17.5067 23.4455 18.2698 23.7615 19.0654 23.7615C19.8611 23.7615 20.6241 23.4455 21.1868 22.8829C21.7494 22.3202 22.0654 21.5572 22.0654 20.7615V18.7615C22.0654 18.7535 22.0654 18.7475 22.0654 18.7395C22.6847 18.2772 23.1877 17.677 23.5349 16.9866C23.882 16.2961 24.0637 15.5343 24.0654 14.7615V13.7615C24.0665 12.9837 23.9311 12.2116 23.6654 11.4805L20.9654 4.05254ZM5.04743 4.73654C5.25887 4.1587 5.64237 3.65958 6.14624 3.30644C6.65012 2.9533 7.25014 2.76312 7.86544 2.76154H16.2654C16.8811 2.76271 17.4815 2.95271 17.9858 3.30587C18.4901 3.65904 18.8739 4.15839 19.0854 4.73654L21.2734 10.7615H2.85643L5.04743 4.73654ZM6.06544 20.7615C6.06544 21.0268 5.96008 21.2811 5.77254 21.4686C5.58501 21.6562 5.33065 21.7615 5.06543 21.7615C4.80022 21.7615 4.54586 21.6562 4.35833 21.4686C4.17079 21.2811 4.06543 21.0268 4.06543 20.7615V19.6615C4.39456 19.7284 4.72959 19.7619 5.06543 19.7615H6.06544V20.7615ZM20.0654 20.7615C20.0654 21.0268 19.9601 21.2811 19.7725 21.4686C19.585 21.6562 19.3307 21.7615 19.0654 21.7615C18.8002 21.7615 18.5459 21.6562 18.3583 21.4686C18.1708 21.2811 18.0654 21.0268 18.0654 20.7615V19.7615H19.0654C19.4013 19.7619 19.7363 19.7284 20.0654 19.6615V20.7615ZM22.0654 14.7615C22.0654 15.5572 21.7494 16.3202 21.1868 16.8829C20.6241 17.4455 19.8611 17.7615 19.0654 17.7615H5.06543C4.26979 17.7615 3.50672 17.4455 2.94411 16.8829C2.38151 16.3202 2.06543 15.5572 2.06543 14.7615V13.7615C2.06951 13.4248 2.11008 13.0895 2.18643 12.7615H4.06543V13.7615C4.06543 14.0268 4.17079 14.2811 4.35833 14.4686C4.54586 14.6562 4.80022 14.7615 5.06543 14.7615C5.33065 14.7615 5.58501 14.6562 5.77254 14.4686C5.96008 14.2811 6.06544 14.0268 6.06544 13.7615V12.7615H18.0654V13.7615C18.0654 14.0268 18.1708 14.2811 18.3583 14.4686C18.5459 14.6562 18.8002 14.7615 19.0654 14.7615C19.3307 14.7615 19.585 14.6562 19.7725 14.4686C19.9601 14.2811 20.0654 14.0268 20.0654 13.7615V12.7615H21.9444C22.0208 13.0895 22.0614 13.4248 22.0654 13.7615V14.7615Z">
    </path>
  </symbol>
  <symbol xmlns="http://www.w3.org/2000/svg" viewBox="0 0 25 25" id="nature">
    <path
      d="M23.7025 1.61636C23.3899 1.30455 23.0121 1.06595 22.5962 0.917755C22.1804 0.769562 21.7368 0.715464 21.2975 0.759359C18.5045 1.02936 9.1115 2.19236 5.4835 5.81636C3.74927 7.55531 2.7209 9.87519 2.59698 12.328C2.47306 14.7808 3.26237 17.1925 4.8125 19.0974L0.872508 23.0374C0.690351 23.226 0.589556 23.4786 0.591835 23.7408C0.594113 24.003 0.699282 24.2538 0.88469 24.4392C1.0701 24.6246 1.32091 24.7298 1.58311 24.732C1.8453 24.7343 2.0979 24.6335 2.28651 24.4514L6.2265 20.5114C8.131 22.0636 10.5434 22.8545 12.9972 22.7313C15.451 22.6081 17.772 21.5795 19.5115 19.8444C23.1875 16.1674 24.3115 6.80336 24.5705 4.02136C24.6128 3.58123 24.5569 3.13719 24.4068 2.72129C24.2567 2.30539 24.0161 1.928 23.7025 1.61636ZM18.1025 18.4264C16.739 19.7848 14.9277 20.6007 13.0068 20.7216C11.0858 20.8425 9.18656 20.2602 7.6635 19.0834L17.2955 9.45136C17.4776 9.26276 17.5784 9.01015 17.5762 8.74796C17.5739 8.48576 17.4687 8.23495 17.2833 8.04954C17.0979 7.86413 16.8471 7.75896 16.5849 7.75668C16.3227 7.75441 16.0701 7.8552 15.8815 8.03736L6.2445 17.6694C5.06748 16.1464 4.48503 14.2471 4.60594 12.3261C4.72684 10.4051 5.54282 8.59375 6.9015 7.23036C9.4105 4.72236 16.3285 3.24436 21.4905 2.74936C21.6367 2.73513 21.7842 2.75329 21.9226 2.80254C22.061 2.85179 22.1868 2.93092 22.2912 3.03431C22.3955 3.1377 22.4758 3.26281 22.5263 3.40074C22.5769 3.53867 22.5964 3.68603 22.5835 3.83236C22.0835 9.21936 20.6425 15.8814 18.0975 18.4264H18.1025Z">
    </path>
  </symbol>
  <symbol xmlns="http://www.w3.org/2000/svg" viewBox="0 0 25 25" id="animals">
    <path
      d="M23.4422 0.933522C23.2067 0.744445 22.9312 0.611654 22.6365 0.545278C22.3419 0.478902 22.036 0.480696 21.7422 0.550522C20.8064 0.800957 19.9433 1.26954 19.2235 1.91789C18.5037 2.56624 17.9478 3.37589 17.6012 4.28052C15.8409 3.79552 14.0268 3.53281 12.2012 3.49852C10.3756 3.53281 8.56153 3.79552 6.80121 4.28052C6.45431 3.37559 5.8979 2.56576 5.17757 1.9174C4.45725 1.26904 3.59353 0.800613 2.65721 0.550522C2.3634 0.48062 2.05749 0.478789 1.76286 0.545167C1.46823 0.611546 1.19267 0.744379 0.957213 0.933522C0.720786 1.12133 0.529951 1.36023 0.399021 1.63231C0.268091 1.90439 0.200464 2.20258 0.201213 2.50452V10.3565C0.197257 11.8016 0.479994 13.2332 1.03305 14.5683C1.58611 15.9034 2.39851 17.1155 3.42321 18.1345L8.08021 22.7915C9.17754 23.8762 10.6583 24.4845 12.2012 24.4845C13.7442 24.4845 15.2249 23.8762 16.3222 22.7915L20.9792 18.1345C22.0037 17.1154 22.816 15.9032 23.3691 14.5682C23.9221 13.2331 24.205 11.8016 24.2012 10.3565V2.50452C24.202 2.20226 24.1341 1.90377 24.0027 1.6316C23.8712 1.35944 23.6795 1.12073 23.4422 0.933522ZM5.25221 5.81452C5.33598 6.06602 5.51617 6.27396 5.75319 6.39266C5.99021 6.51135 6.26465 6.53109 6.51621 6.44752C8.35836 5.87046 10.2715 5.5511 12.2012 5.49852C14.1309 5.55122 16.044 5.87058 17.8862 6.44752C18.1376 6.53078 18.4118 6.51089 18.6486 6.39222C18.8854 6.27354 19.0654 6.06578 19.1492 5.81452C19.7662 3.96552 20.8202 2.81952 22.2012 2.50452V8.67152C19.7732 9.23052 13.2012 11.4825 13.2012 19.4985V19.6825C12.5561 19.4425 11.8463 19.4425 11.2012 19.6825V19.4985C11.2012 11.4835 4.63021 9.23052 2.20121 8.67152V2.49852C3.58221 2.81952 4.63621 3.96652 5.25221 5.81452ZM4.83721 16.7205C3.23643 15.1241 2.30082 12.9798 2.21921 10.7205C2.90075 10.8999 3.56425 11.1419 4.20121 11.4435V11.4985C4.38088 12.3265 4.8334 13.0701 5.48621 13.6101C6.13901 14.1501 6.95427 14.4552 7.80121 14.4765C8.76144 15.972 9.24927 17.7219 9.20121 19.4985V21.0845L4.83721 16.7205ZM19.5652 16.7205L15.2012 21.0845V19.4985C15.1532 17.7219 15.641 15.972 16.6012 14.4765C17.4481 14.4549 18.2631 14.1496 18.9159 13.6097C19.5686 13.0697 20.0212 12.3263 20.2012 11.4985V11.4435C20.8382 11.1423 21.5017 10.9006 22.1832 10.7215C22.1014 12.9805 21.1658 15.1243 19.5652 16.7205Z">
    </path>
  </symbol>
  <symbol xmlns="http://www.w3.org/2000/svg" viewBox="0 0 25 24" id="another">
    <path
      d="M7.10059 3.57628e-07H4.10059C3.03973 3.57628e-07 2.02231 0.421428 1.27217 1.17157C0.522021 1.92172 0.100594 2.93913 0.100594 4V7C0.100594 8.06087 0.522021 9.07828 1.27217 9.82843C2.02231 10.5786 3.03973 11 4.10059 11H7.10059C8.16146 11 9.17888 10.5786 9.92902 9.82843C10.6792 9.07828 11.1006 8.06087 11.1006 7V4C11.1006 2.93913 10.6792 1.92172 9.92902 1.17157C9.17888 0.421428 8.16146 3.57628e-07 7.10059 3.57628e-07ZM9.10059 7C9.10059 7.53043 8.88988 8.03914 8.51481 8.41421C8.13973 8.78929 7.63103 9 7.10059 9H4.10059C3.57016 9 3.06145 8.78929 2.68638 8.41421C2.31131 8.03914 2.10059 7.53043 2.10059 7V4C2.10059 3.46957 2.31131 2.96086 2.68638 2.58579C3.06145 2.21071 3.57016 2 4.10059 2H7.10059C7.63103 2 8.13973 2.21071 8.51481 2.58579C8.88988 2.96086 9.10059 3.46957 9.10059 4V7Z">
    </path>
    <path
      d="M20.1004 0H17.1004C16.0396 0 15.0222 0.421428 14.272 1.17157C13.5219 1.92172 13.1004 2.93914 13.1004 4V7C13.1004 8.06087 13.5219 9.07829 14.272 9.82843C15.0222 10.5786 16.0396 11 17.1004 11H20.1004C21.1613 11 22.1787 10.5786 22.9289 9.82843C23.679 9.07829 24.1004 8.06087 24.1004 7V4C24.1004 2.93914 23.679 1.92172 22.9289 1.17157C22.1787 0.421428 21.1613 0 20.1004 0ZM22.1004 7C22.1004 7.53044 21.8897 8.03915 21.5147 8.41422C21.1396 8.78929 20.6309 9.00001 20.1004 9.00001H17.1004C16.57 9.00001 16.0613 8.78929 15.6862 8.41422C15.3112 8.03915 15.1004 7.53044 15.1004 7V4C15.1004 3.46957 15.3112 2.96086 15.6862 2.58579C16.0613 2.21072 16.57 2 17.1004 2H20.1004C20.6309 2 21.1396 2.21072 21.5147 2.58579C21.8897 2.96086 22.1004 3.46957 22.1004 4V7Z">
    </path>
    <path
      d="M7.10059 13H4.10059C3.03972 13 2.0223 13.4214 1.27216 14.1716C0.522013 14.9217 0.100586 15.9391 0.100586 17V20C0.100586 21.0609 0.522013 22.0783 1.27216 22.8284C2.0223 23.5786 3.03972 24 4.10059 24H7.10059C8.16145 24 9.17887 23.5786 9.92901 22.8284C10.6792 22.0783 11.1006 21.0609 11.1006 20V17C11.1006 15.9391 10.6792 14.9217 9.92901 14.1716C9.17887 13.4214 8.16145 13 7.10059 13ZM9.10059 20C9.10059 20.5304 8.88987 21.0392 8.5148 21.4142C8.13973 21.7893 7.63102 22 7.10059 22H4.10059C3.57015 22 3.06145 21.7893 2.68637 21.4142C2.3113 21.0392 2.10059 20.5304 2.10059 20V17C2.10059 16.4696 2.3113 15.9609 2.68637 15.5858C3.06145 15.2107 3.57015 15 4.10059 15H7.10059C7.63102 15 8.13973 15.2107 8.5148 15.5858C8.88987 15.9609 9.10059 16.4696 9.10059 17V20Z">
    </path>
    <path
      d="M20.1004 13H17.1004C16.0396 13 15.0222 13.4214 14.272 14.1716C13.5219 14.9217 13.1004 15.9391 13.1004 17V20C13.1004 21.0609 13.5219 22.0783 14.272 22.8284C15.0222 23.5786 16.0396 24 17.1004 24H20.1004C21.1613 24 22.1787 23.5786 22.9289 22.8284C23.679 22.0783 24.1004 21.0609 24.1004 20V17C24.1004 15.9391 23.679 14.9217 22.9289 14.1716C22.1787 13.4214 21.1613 13 20.1004 13ZM22.1004 20C22.1004 20.5304 21.8897 21.0392 21.5147 21.4142C21.1396 21.7893 20.6309 22 20.1004 22H17.1004C16.57 22 16.0613 21.7893 15.6862 21.4142C15.3112 21.0392 15.1004 20.5304 15.1004 20V17C15.1004 16.4696 15.3112 15.9609 15.6862 15.5858C16.0613 15.2107 16.57 15 17.1004 15H20.1004C20.6309 15 21.1396 15.2107 21.5147 15.5858C21.8897 15.9609 22.1004 16.4696 22.1004 17V20Z">
    </path>
  </symbol>
  <symbol xmlns="http://www.w3.org/2000/svg" viewBox="0 0 24 24" id="top">
    <path
      d="M17.7098 9.87998L13.4098 5.58998C13.0351 5.21748 12.5282 5.00839 11.9998 5.00839C11.4714 5.00839 10.9645 5.21748 10.5898 5.58998L6.28982 9.87998C6.10356 10.0673 5.99902 10.3208 5.99902 10.585C5.99902 10.8492 6.10356 11.1026 6.28982 11.29C6.38278 11.3837 6.49338 11.4581 6.61524 11.5089C6.7371 11.5596 6.8678 11.5858 6.99982 11.5858C7.13183 11.5858 7.26253 11.5596 7.38439 11.5089C7.50625 11.4581 7.61685 11.3837 7.70982 11.29L10.9998 7.99998V19C10.9998 19.2652 11.1052 19.5195 11.2927 19.7071C11.4802 19.8946 11.7346 20 11.9998 20C12.265 20 12.5194 19.8946 12.7069 19.7071C12.8945 19.5195 12.9998 19.2652 12.9998 19V7.99998L16.2898 11.29C16.4768 11.4783 16.7309 11.5846 16.9963 11.5855C17.2616 11.5865 17.5165 11.482 17.7048 11.295C17.8931 11.108 17.9994 10.8539 18.0004 10.5885C18.0013 10.3231 17.8968 10.0683 17.7098 9.87998Z">
    </path>
  </symbol>

</svg>
