<svg width="0" height="0" class="hidden">
  <symbol xmlns="http://www.w3.org/2000/svg" viewBox="0 0 28 28" id="arrow-down">
    <path
      d="M14 18.9883C14.3076 18.9795 14.5889 18.8652 14.8174 18.6191L21.4971 11.7812C21.6904 11.5879 21.7959 11.3418 21.7959 11.0518C21.7959 10.4717 21.3389 10.0059 20.7588 10.0059C20.4775 10.0059 20.2051 10.1201 20.0029 10.3223L14.0088 16.4834L7.99707 10.3223C7.79492 10.1289 7.53125 10.0059 7.24121 10.0059C6.66113 10.0059 6.2041 10.4717 6.2041 11.0518C6.2041 11.3418 6.30957 11.5879 6.50293 11.7812L13.1914 18.6191C13.4287 18.8652 13.6924 18.9883 14 18.9883Z">
    </path>
  </symbol>
</svg>
